<svg width="54" height="11" viewBox="0 0 54 11" fill="none" xmlns="http://www.w3.org/2000/svg">
<path d="M5.14365 1.52291C5.20352 1.33865 5.4642 1.33865 5.52407 1.52291L6.41851 4.27572C6.44529 4.35813 6.52208 4.41392 6.60872 4.41392H9.5032C9.69695 4.41392 9.7775 4.66184 9.62076 4.77572L7.27908 6.47706C7.20898 6.52798 7.17965 6.61826 7.20642 6.70066L8.10086 9.45347C8.16074 9.63774 7.94984 9.79096 7.7931 9.67708L5.45141 7.97575C5.38132 7.92482 5.2864 7.92482 5.2163 7.97575L2.87462 9.67708C2.71787 9.79096 2.50698 9.63774 2.56685 9.45347L3.46129 6.70066C3.48807 6.61826 3.45873 6.52798 3.38864 6.47706L1.04695 4.77572C0.890212 4.66184 0.970767 4.41392 1.16451 4.41392H4.05899C4.14564 4.41392 4.22243 4.35813 4.2492 4.27572L5.14365 1.52291Z" fill="#F2C938"/>
<path d="M15.9248 1.52291C15.9846 1.33865 16.2453 1.33865 16.3052 1.52291L17.1996 4.27572C17.2264 4.35813 17.3032 4.41392 17.3899 4.41392H20.2843C20.4781 4.41392 20.5586 4.66184 20.4019 4.77572L18.0602 6.47706C17.9901 6.52798 17.9608 6.61826 17.9875 6.70066L18.882 9.45347C18.9419 9.63774 18.731 9.79096 18.5742 9.67708L16.2325 7.97575C16.1624 7.92482 16.0675 7.92482 15.9974 7.97575L13.6557 9.67708C13.499 9.79096 13.2881 9.63774 13.348 9.45347L14.2424 6.70066C14.2692 6.61826 14.2399 6.52798 14.1698 6.47706L11.8281 4.77572C11.6713 4.66184 11.7519 4.41392 11.9456 4.41392H14.8401C14.9268 4.41392 15.0036 4.35813 15.0303 4.27572L15.9248 1.52291Z" fill="#F2C938"/>
<path d="M26.7061 1.52291C26.766 1.33865 27.0267 1.33865 27.0866 1.52291L27.981 4.27572C28.0078 4.35813 28.0846 4.41392 28.1712 4.41392H31.0657C31.2594 4.41392 31.34 4.66184 31.1833 4.77572L28.8416 6.47706C28.7715 6.52798 28.7421 6.61826 28.7689 6.70066L29.6634 9.45347C29.7232 9.63774 29.5123 9.79096 29.3556 9.67708L27.0139 7.97575C26.9438 7.92482 26.8489 7.92482 26.7788 7.97575L24.4371 9.67708C24.2804 9.79096 24.0695 9.63774 24.1293 9.45347L25.0238 6.70066C25.0506 6.61826 25.0212 6.52798 24.9511 6.47706L22.6095 4.77572C22.4527 4.66184 22.5333 4.41392 22.727 4.41392H25.6215C25.7081 4.41392 25.7849 4.35813 25.8117 4.27572L26.7061 1.52291Z" fill="#F2C938"/>
<path d="M37.4874 1.52291C37.5473 1.33865 37.8079 1.33865 37.8678 1.52291L38.7623 4.27572C38.789 4.35813 38.8658 4.41392 38.9525 4.41392H41.847C42.0407 4.41392 42.1213 4.66184 41.9645 4.77572L39.6228 6.47706C39.5527 6.52798 39.5234 6.61826 39.5502 6.70066L40.4446 9.45347C40.5045 9.63774 40.2936 9.79096 40.1368 9.67708L37.7952 7.97575C37.7251 7.92482 37.6301 7.92482 37.56 7.97575L35.2184 9.67708C35.0616 9.79096 34.8507 9.63774 34.9106 9.45347L35.805 6.70066C35.8318 6.61826 35.8025 6.52798 35.7324 6.47706L33.3907 4.77572C33.234 4.66184 33.3145 4.41392 33.5083 4.41392H36.4027C36.4894 4.41392 36.5662 4.35813 36.593 4.27572L37.4874 1.52291Z" fill="#F2C938"/>
<path d="M48.2667 1.52291C48.3266 1.33865 48.5872 1.33865 48.6471 1.52291L49.5416 4.27572C49.5683 4.35813 49.6451 4.41392 49.7318 4.41392H52.6262C52.82 4.41392 52.9005 4.66184 52.7438 4.77572L50.4021 6.47706C50.332 6.52798 50.3027 6.61826 50.3295 6.70066L51.2239 9.45347C51.2838 9.63774 51.0729 9.79096 50.9161 9.67708L48.5745 7.97575C48.5044 7.92482 48.4094 7.92482 48.3393 7.97575L45.9977 9.67708C45.8409 9.79096 45.63 9.63774 45.6899 9.45347L46.5843 6.70066C46.6111 6.61826 46.5818 6.52798 46.5117 6.47706L44.17 4.77572C44.0133 4.66184 44.0938 4.41392 44.2876 4.41392H47.182C47.2687 4.41392 47.3455 4.35813 47.3722 4.27572L48.2667 1.52291Z" fill="#F2C938"/>
</svg>
