<svg width="37" height="38" viewBox="0 0 37 38" fill="none" xmlns="http://www.w3.org/2000/svg">
<path d="M30.6119 17.3529H33.6481C33.6481 9.56518 27.7686 3.69177 19.9703 3.69177V6.72791C26.1367 6.72791 30.6119 11.1956 30.6119 17.3529Z" fill="#F2C938"/>
<path d="M19.9856 12.8008C23.1781 12.8008 24.5398 14.1625 24.5398 17.355H27.5759C27.5759 12.4592 24.8813 9.76466 19.9856 9.76466V12.8008ZM25.1804 21.0636C24.8887 20.7985 24.5054 20.6571 24.1114 20.6693C23.7174 20.6815 23.3435 20.8463 23.0688 21.1289L19.436 24.8649C18.5616 24.6979 16.8037 24.1499 14.9941 22.3449C13.1846 20.5338 12.6366 18.7714 12.4742 17.903L16.2071 14.2688C16.4901 13.9942 16.6551 13.6203 16.6673 13.2262C16.6795 12.8321 16.5378 12.4487 16.2724 12.1571L10.6631 5.98922C10.3975 5.69677 10.0284 5.51938 9.63408 5.49472C9.2398 5.47006 8.85143 5.60008 8.55146 5.85715L5.25726 8.68227C4.9948 8.94568 4.83815 9.29626 4.81702 9.6675C4.79424 10.047 4.36008 19.037 11.331 26.011C17.4124 32.0909 25.0301 32.5357 27.1281 32.5357C27.4347 32.5357 27.623 32.5266 27.6731 32.5235C28.0442 32.5028 28.3946 32.3454 28.6568 32.0818L31.4804 28.7861C31.7376 28.4863 31.8679 28.098 31.8435 27.7037C31.8192 27.3095 31.642 26.9402 31.3498 26.6744L25.1804 21.0636Z" fill="#F2C938"/>
</svg>
