<svg width="176" height="176" viewBox="0 0 176 176" fill="none" xmlns="http://www.w3.org/2000/svg">
<path fill-rule="evenodd" clip-rule="evenodd" d="M8 4C8 6.20914 6.20914 8 4 8C1.79086 8 0 6.20914 0 4C0 1.79086 1.79086 0 4 0C6.20914 0 8 1.79086 8 4ZM32 4C32 6.20914 30.2091 8 28 8C25.7909 8 24 6.20914 24 4C24 1.79086 25.7909 0 28 0C30.2091 0 32 1.79086 32 4ZM52 8C54.2091 8 56 6.20914 56 4C56 1.79086 54.2091 0 52 0C49.7909 0 48 1.79086 48 4C48 6.20914 49.7909 8 52 8ZM80 4C80 6.20914 78.2091 8 76 8C73.7909 8 72 6.20914 72 4C72 1.79086 73.7909 0 76 0C78.2091 0 80 1.79086 80 4ZM100 8C102.209 8 104 6.20914 104 4C104 1.79086 102.209 0 100 0C97.7909 0 96 1.79086 96 4C96 6.20914 97.7909 8 100 8ZM128 4C128 6.20914 126.209 8 124 8C121.791 8 120 6.20914 120 4C120 1.79086 121.791 0 124 0C126.209 0 128 1.79086 128 4ZM148 8C150.209 8 152 6.20914 152 4C152 1.79086 150.209 0 148 0C145.791 0 144 1.79086 144 4C144 6.20914 145.791 8 148 8ZM176 4C176 6.20914 174.209 8 172 8C169.791 8 168 6.20914 168 4C168 1.79086 169.791 0 172 0C174.209 0 176 1.79086 176 4ZM4 32C6.20914 32 8 30.2091 8 28C8 25.7909 6.20914 24 4 24C1.79086 24 0 25.7909 0 28C0 30.2091 1.79086 32 4 32ZM32 28C32 30.2091 30.2091 32 28 32C25.7909 32 24 30.2091 24 28C24 25.7909 25.7909 24 28 24C30.2091 24 32 25.7909 32 28ZM52 32C54.2091 32 56 30.2091 56 28C56 25.7909 54.2091 24 52 24C49.7909 24 48 25.7909 48 28C48 30.2091 49.7909 32 52 32ZM80 28C80 30.2091 78.2091 32 76 32C73.7909 32 72 30.2091 72 28C72 25.7909 73.7909 24 76 24C78.2091 24 80 25.7909 80 28ZM100 32C102.209 32 104 30.2091 104 28C104 25.7909 102.209 24 100 24C97.7909 24 96 25.7909 96 28C96 30.2091 97.7909 32 100 32ZM128 28C128 30.2091 126.209 32 124 32C121.791 32 120 30.2091 120 28C120 25.7909 121.791 24 124 24C126.209 24 128 25.7909 128 28ZM148 32C150.209 32 152 30.2091 152 28C152 25.7909 150.209 24 148 24C145.791 24 144 25.7909 144 28C144 30.2091 145.791 32 148 32ZM176 28C176 30.2091 174.209 32 172 32C169.791 32 168 30.2091 168 28C168 25.7909 169.791 24 172 24C174.209 24 176 25.7909 176 28ZM4 56C6.20914 56 8 54.2091 8 52C8 49.7909 6.20914 48 4 48C1.79086 48 0 49.7909 0 52C0 54.2091 1.79086 56 4 56ZM32 52C32 54.2091 30.2091 56 28 56C25.7909 56 24 54.2091 24 52C24 49.7909 25.7909 48 28 48C30.2091 48 32 49.7909 32 52ZM52 56C54.2091 56 56 54.2091 56 52C56 49.7909 54.2091 48 52 48C49.7909 48 48 49.7909 48 52C48 54.2091 49.7909 56 52 56ZM80 52C80 54.2091 78.2091 56 76 56C73.7909 56 72 54.2091 72 52C72 49.7909 73.7909 48 76 48C78.2091 48 80 49.7909 80 52ZM100 56C102.209 56 104 54.2091 104 52C104 49.7909 102.209 48 100 48C97.7909 48 96 49.7909 96 52C96 54.2091 97.7909 56 100 56ZM128 52C128 54.2091 126.209 56 124 56C121.791 56 120 54.2091 120 52C120 49.7909 121.791 48 124 48C126.209 48 128 49.7909 128 52ZM148 56C150.209 56 152 54.2091 152 52C152 49.7909 150.209 48 148 48C145.791 48 144 49.7909 144 52C144 54.2091 145.791 56 148 56ZM176 52C176 54.2091 174.209 56 172 56C169.791 56 168 54.2091 168 52C168 49.7909 169.791 48 172 48C174.209 48 176 49.7909 176 52ZM4 80C6.20914 80 8 78.2091 8 76C8 73.7909 6.20914 72 4 72C1.79086 72 0 73.7909 0 76C0 78.2091 1.79086 80 4 80ZM32 76C32 78.2091 30.2091 80 28 80C25.7909 80 24 78.2091 24 76C24 73.7909 25.7909 72 28 72C30.2091 72 32 73.7909 32 76ZM52 80C54.2091 80 56 78.2091 56 76C56 73.7909 54.2091 72 52 72C49.7909 72 48 73.7909 48 76C48 78.2091 49.7909 80 52 80ZM80 76C80 78.2091 78.2091 80 76 80C73.7909 80 72 78.2091 72 76C72 73.7909 73.7909 72 76 72C78.2091 72 80 73.7909 80 76ZM100 80C102.209 80 104 78.2091 104 76C104 73.7909 102.209 72 100 72C97.7909 72 96 73.7909 96 76C96 78.2091 97.7909 80 100 80ZM128 76C128 78.2091 126.209 80 124 80C121.791 80 120 78.2091 120 76C120 73.7909 121.791 72 124 72C126.209 72 128 73.7909 128 76ZM148 80C150.209 80 152 78.2091 152 76C152 73.7909 150.209 72 148 72C145.791 72 144 73.7909 144 76C144 78.2091 145.791 80 148 80ZM176 76C176 78.2091 174.209 80 172 80C169.791 80 168 78.2091 168 76C168 73.7909 169.791 72 172 72C174.209 72 176 73.7909 176 76ZM4 104C6.20914 104 8 102.209 8 100C8 97.7909 6.20914 96 4 96C1.79086 96 0 97.7909 0 100C0 102.209 1.79086 104 4 104ZM32 100C32 102.209 30.2091 104 28 104C25.7909 104 24 102.209 24 100C24 97.7909 25.7909 96 28 96C30.2091 96 32 97.7909 32 100ZM52 104C54.2091 104 56 102.209 56 100C56 97.7909 54.2091 96 52 96C49.7909 96 48 97.7909 48 100C48 102.209 49.7909 104 52 104ZM80 100C80 102.209 78.2091 104 76 104C73.7909 104 72 102.209 72 100C72 97.7909 73.7909 96 76 96C78.2091 96 80 97.7909 80 100ZM100 104C102.209 104 104 102.209 104 100C104 97.7909 102.209 96 100 96C97.7909 96 96 97.7909 96 100C96 102.209 97.7909 104 100 104ZM128 100C128 102.209 126.209 104 124 104C121.791 104 120 102.209 120 100C120 97.7909 121.791 96 124 96C126.209 96 128 97.7909 128 100ZM148 104C150.209 104 152 102.209 152 100C152 97.7909 150.209 96 148 96C145.791 96 144 97.7909 144 100C144 102.209 145.791 104 148 104ZM176 100C176 102.209 174.209 104 172 104C169.791 104 168 102.209 168 100C168 97.7909 169.791 96 172 96C174.209 96 176 97.7909 176 100ZM4 128C6.20914 128 8 126.209 8 124C8 121.791 6.20914 120 4 120C1.79086 120 0 121.791 0 124C0 126.209 1.79086 128 4 128ZM32 124C32 126.209 30.2091 128 28 128C25.7909 128 24 126.209 24 124C24 121.791 25.7909 120 28 120C30.2091 120 32 121.791 32 124ZM52 128C54.2091 128 56 126.209 56 124C56 121.791 54.2091 120 52 120C49.7909 120 48 121.791 48 124C48 126.209 49.7909 128 52 128ZM80 124C80 126.209 78.2091 128 76 128C73.7909 128 72 126.209 72 124C72 121.791 73.7909 120 76 120C78.2091 120 80 121.791 80 124ZM100 128C102.209 128 104 126.209 104 124C104 121.791 102.209 120 100 120C97.7909 120 96 121.791 96 124C96 126.209 97.7909 128 100 128ZM128 124C128 126.209 126.209 128 124 128C121.791 128 120 126.209 120 124C120 121.791 121.791 120 124 120C126.209 120 128 121.791 128 124ZM148 128C150.209 128 152 126.209 152 124C152 121.791 150.209 120 148 120C145.791 120 144 121.791 144 124C144 126.209 145.791 128 148 128ZM176 124C176 126.209 174.209 128 172 128C169.791 128 168 126.209 168 124C168 121.791 169.791 120 172 120C174.209 120 176 121.791 176 124ZM4 152C6.20914 152 8 150.209 8 148C8 145.791 6.20914 144 4 144C1.79086 144 0 145.791 0 148C0 150.209 1.79086 152 4 152ZM32 148C32 150.209 30.2091 152 28 152C25.7909 152 24 150.209 24 148C24 145.791 25.7909 144 28 144C30.2091 144 32 145.791 32 148ZM52 152C54.2091 152 56 150.209 56 148C56 145.791 54.2091 144 52 144C49.7909 144 48 145.791 48 148C48 150.209 49.7909 152 52 152ZM80 148C80 150.209 78.2091 152 76 152C73.7909 152 72 150.209 72 148C72 145.791 73.7909 144 76 144C78.2091 144 80 145.791 80 148ZM100 152C102.209 152 104 150.209 104 148C104 145.791 102.209 144 100 144C97.7909 144 96 145.791 96 148C96 150.209 97.7909 152 100 152ZM128 148C128 150.209 126.209 152 124 152C121.791 152 120 150.209 120 148C120 145.791 121.791 144 124 144C126.209 144 128 145.791 128 148ZM148 152C150.209 152 152 150.209 152 148C152 145.791 150.209 144 148 144C145.791 144 144 145.791 144 148C144 150.209 145.791 152 148 152ZM176 148C176 150.209 174.209 152 172 152C169.791 152 168 150.209 168 148C168 145.791 169.791 144 172 144C174.209 144 176 145.791 176 148ZM4 176C6.20914 176 8 174.209 8 172C8 169.791 6.20914 168 4 168C1.79086 168 0 169.791 0 172C0 174.209 1.79086 176 4 176ZM32 172C32 174.209 30.2091 176 28 176C25.7909 176 24 174.209 24 172C24 169.791 25.7909 168 28 168C30.2091 168 32 169.791 32 172ZM52 176C54.2091 176 56 174.209 56 172C56 169.791 54.2091 168 52 168C49.7909 168 48 169.791 48 172C48 174.209 49.7909 176 52 176ZM80 172C80 174.209 78.2091 176 76 176C73.7909 176 72 174.209 72 172C72 169.791 73.7909 168 76 168C78.2091 168 80 169.791 80 172ZM100 176C102.209 176 104 174.209 104 172C104 169.791 102.209 168 100 168C97.7909 168 96 169.791 96 172C96 174.209 97.7909 176 100 176ZM128 172C128 174.209 126.209 176 124 176C121.791 176 120 174.209 120 172C120 169.791 121.791 168 124 168C126.209 168 128 169.791 128 172ZM148 176C150.209 176 152 174.209 152 172C152 169.791 150.209 168 148 168C145.791 168 144 169.791 144 172C144 174.209 145.791 176 148 176ZM176 172C176 174.209 174.209 176 172 176C169.791 176 168 174.209 168 172C168 169.791 169.791 168 172 168C174.209 168 176 169.791 176 172Z" fill="black"/>
</svg>
