<svg width="151" height="151" viewBox="0 0 151 151" fill="none" xmlns="http://www.w3.org/2000/svg">
<path fill-rule="evenodd" clip-rule="evenodd" d="M6.86364 3.43182C6.86364 5.32716 5.32716 6.86364 3.43182 6.86364C1.53648 6.86364 0 5.32716 0 3.43182C0 1.53648 1.53648 0 3.43182 0C5.32716 0 6.86364 1.53648 6.86364 3.43182ZM27.4554 3.43182C27.4554 5.32716 25.919 6.86364 24.0236 6.86364C22.1283 6.86364 20.5918 5.32716 20.5918 3.43182C20.5918 1.53648 22.1283 0 24.0236 0C25.919 0 27.4554 1.53648 27.4554 3.43182ZM44.6135 6.86364C46.5088 6.86364 48.0453 5.32716 48.0453 3.43182C48.0453 1.53648 46.5088 0 44.6135 0C42.7181 0 41.1816 1.53648 41.1816 3.43182C41.1816 5.32716 42.7181 6.86364 44.6135 6.86364ZM68.6371 3.43182C68.6371 5.32716 67.1006 6.86364 65.2053 6.86364C63.3099 6.86364 61.7734 5.32716 61.7734 3.43182C61.7734 1.53648 63.3099 0 65.2053 0C67.1006 0 68.6371 1.53648 68.6371 3.43182ZM85.7951 6.86364C87.6904 6.86364 89.2269 5.32716 89.2269 3.43182C89.2269 1.53648 87.6904 0 85.7951 0C83.8998 0 82.3633 1.53648 82.3633 3.43182C82.3633 5.32716 83.8998 6.86364 85.7951 6.86364ZM109.819 3.43182C109.819 5.32716 108.282 6.86364 106.387 6.86364C104.492 6.86364 102.955 5.32716 102.955 3.43182C102.955 1.53648 104.492 0 106.387 0C108.282 0 109.819 1.53648 109.819 3.43182ZM126.977 6.86364C128.872 6.86364 130.409 5.32716 130.409 3.43182C130.409 1.53648 128.872 0 126.977 0C125.081 0 123.545 1.53648 123.545 3.43182C123.545 5.32716 125.081 6.86364 126.977 6.86364ZM151 3.43182C151 5.32716 149.464 6.86364 147.569 6.86364C145.673 6.86364 144.137 5.32716 144.137 3.43182C144.137 1.53648 145.673 0 147.569 0C149.464 0 151 1.53648 151 3.43182ZM3.43182 27.4545C5.32716 27.4545 6.86364 25.9181 6.86364 24.0227C6.86364 22.1274 5.32716 20.5909 3.43182 20.5909C1.53648 20.5909 0 22.1274 0 24.0227C0 25.9181 1.53648 27.4545 3.43182 27.4545ZM27.4554 24.0226C27.4554 25.918 25.919 27.4545 24.0236 27.4545C22.1283 27.4545 20.5918 25.918 20.5918 24.0226C20.5918 22.1273 22.1283 20.5908 24.0236 20.5908C25.919 20.5908 27.4554 22.1273 27.4554 24.0226ZM44.6135 27.4545C46.5088 27.4545 48.0453 25.918 48.0453 24.0226C48.0453 22.1273 46.5088 20.5908 44.6135 20.5908C42.7181 20.5908 41.1816 22.1273 41.1816 24.0226C41.1816 25.918 42.7181 27.4545 44.6135 27.4545ZM68.6371 24.0226C68.6371 25.918 67.1006 27.4545 65.2053 27.4545C63.3099 27.4545 61.7734 25.918 61.7734 24.0226C61.7734 22.1273 63.3099 20.5908 65.2053 20.5908C67.1006 20.5908 68.6371 22.1273 68.6371 24.0226ZM85.7951 27.4545C87.6904 27.4545 89.2269 25.918 89.2269 24.0226C89.2269 22.1273 87.6904 20.5908 85.7951 20.5908C83.8998 20.5908 82.3633 22.1273 82.3633 24.0226C82.3633 25.918 83.8998 27.4545 85.7951 27.4545ZM109.819 24.0226C109.819 25.918 108.282 27.4545 106.387 27.4545C104.492 27.4545 102.955 25.918 102.955 24.0226C102.955 22.1273 104.492 20.5908 106.387 20.5908C108.282 20.5908 109.819 22.1273 109.819 24.0226ZM3.43182 48.0453C5.32716 48.0453 6.86364 46.5088 6.86364 44.6135C6.86364 42.7181 5.32716 41.1816 3.43182 41.1816C1.53648 41.1816 0 42.7181 0 44.6135C0 46.5088 1.53648 48.0453 3.43182 48.0453ZM27.4554 44.6135C27.4554 46.5088 25.919 48.0453 24.0236 48.0453C22.1283 48.0453 20.5918 46.5088 20.5918 44.6135C20.5918 42.7181 22.1283 41.1816 24.0236 41.1816C25.919 41.1816 27.4554 42.7181 27.4554 44.6135ZM44.6135 48.0453C46.5088 48.0453 48.0453 46.5088 48.0453 44.6135C48.0453 42.7181 46.5088 41.1816 44.6135 41.1816C42.7181 41.1816 41.1816 42.7181 41.1816 44.6135C41.1816 46.5088 42.7181 48.0453 44.6135 48.0453ZM68.6371 44.6135C68.6371 46.5088 67.1006 48.0453 65.2053 48.0453C63.3099 48.0453 61.7734 46.5088 61.7734 44.6135C61.7734 42.7181 63.3099 41.1816 65.2053 41.1816C67.1006 41.1816 68.6371 42.7181 68.6371 44.6135ZM85.7951 48.0453C87.6904 48.0453 89.2269 46.5088 89.2269 44.6135C89.2269 42.7181 87.6904 41.1816 85.7951 41.1816C83.8998 41.1816 82.3633 42.7181 82.3633 44.6135C82.3633 46.5088 83.8998 48.0453 85.7951 48.0453ZM6.86364 65.2048C6.86364 67.1001 5.32716 68.6366 3.43182 68.6366C1.53648 68.6366 0 67.1001 0 65.2048C0 63.3094 1.53648 61.7729 3.43182 61.7729C5.32716 61.7729 6.86364 63.3094 6.86364 65.2048ZM24.0236 68.6366C25.919 68.6366 27.4554 67.1001 27.4554 65.2048C27.4554 63.3094 25.919 61.7729 24.0236 61.7729C22.1283 61.7729 20.5918 63.3094 20.5918 65.2048C20.5918 67.1001 22.1283 68.6366 24.0236 68.6366ZM48.0453 65.2048C48.0453 67.1001 46.5088 68.6366 44.6135 68.6366C42.7181 68.6366 41.1816 67.1001 41.1816 65.2048C41.1816 63.3094 42.7181 61.7729 44.6135 61.7729C46.5088 61.7729 48.0453 63.3094 48.0453 65.2048ZM65.2053 68.6366C67.1006 68.6366 68.6371 67.1001 68.6371 65.2048C68.6371 63.3094 67.1006 61.7729 65.2053 61.7729C63.3099 61.7729 61.7734 63.3094 61.7734 65.2048C61.7734 67.1001 63.3099 68.6366 65.2053 68.6366ZM6.86364 85.7956C6.86364 87.6909 5.32716 89.2274 3.43182 89.2274C1.53648 89.2274 0 87.6909 0 85.7956C0 83.9002 1.53648 82.3638 3.43182 82.3638C5.32716 82.3638 6.86364 83.9002 6.86364 85.7956ZM24.0236 89.2274C25.919 89.2274 27.4554 87.6909 27.4554 85.7956C27.4554 83.9002 25.919 82.3638 24.0236 82.3638C22.1283 82.3638 20.5918 83.9002 20.5918 85.7956C20.5918 87.6909 22.1283 89.2274 24.0236 89.2274ZM48.0453 85.7956C48.0453 87.6909 46.5088 89.2274 44.6135 89.2274C42.7181 89.2274 41.1816 87.6909 41.1816 85.7956C41.1816 83.9002 42.7181 82.3638 44.6135 82.3638C46.5088 82.3638 48.0453 83.9002 48.0453 85.7956ZM3.43182 109.818C5.32716 109.818 6.86364 108.282 6.86364 106.386C6.86364 104.491 5.32716 102.955 3.43182 102.955C1.53648 102.955 0 104.491 0 106.386C0 108.282 1.53648 109.818 3.43182 109.818ZM27.4554 106.386C27.4554 108.282 25.919 109.818 24.0236 109.818C22.1283 109.818 20.5918 108.282 20.5918 106.386C20.5918 104.491 22.1283 102.955 24.0236 102.955C25.919 102.955 27.4554 104.491 27.4554 106.386ZM3.43182 130.409C5.32716 130.409 6.86364 128.873 6.86364 126.977C6.86364 125.082 5.32716 123.545 3.43182 123.545C1.53648 123.545 0 125.082 0 126.977C0 128.873 1.53648 130.409 3.43182 130.409ZM6.86364 147.568C6.86364 149.463 5.32716 151 3.43182 151C1.53648 151 0 149.463 0 147.568C0 145.673 1.53648 144.136 3.43182 144.136C5.32716 144.136 6.86364 145.673 6.86364 147.568Z" fill="#F2C938"/>
</svg>
