<svg width="233" height="233" viewBox="0 0 233 233" fill="none" xmlns="http://www.w3.org/2000/svg">
<path opacity="0.5" fill-rule="evenodd" clip-rule="evenodd" d="M169.144 6.16551C169.144 9.06905 166.79 11.4228 163.886 11.4228C160.983 11.4228 158.629 9.06905 158.629 6.16551C158.629 3.26198 160.983 0.908203 163.886 0.908203C166.79 0.908203 169.144 3.26198 169.144 6.16551ZM42.9678 6.16563C42.9678 9.06917 40.614 11.4229 37.7105 11.4229C34.807 11.4229 32.4532 9.06917 32.4532 6.16563C32.4532 3.2621 34.807 0.908325 37.7105 0.908325C40.614 0.908325 42.9678 3.2621 42.9678 6.16563ZM11.4233 6.166C11.4233 9.06953 9.06953 11.4233 6.166 11.4233C3.26247 11.4233 0.908691 9.06953 0.908691 6.166C0.908691 3.26247 3.26247 0.908691 6.166 0.908691C9.06953 0.908691 11.4233 3.26247 11.4233 6.166ZM69.2527 11.4239C72.1563 11.4239 74.51 9.07008 74.51 6.16655C74.51 3.26302 72.1563 0.909241 69.2527 0.909241C66.3492 0.909241 63.9954 3.26302 63.9954 6.16655C63.9954 9.07008 66.3492 11.4239 69.2527 11.4239ZM106.055 6.16624C106.055 9.06978 103.701 11.4236 100.797 11.4236C97.8937 11.4236 95.5399 9.06978 95.5399 6.16624C95.5399 3.26271 97.8937 0.908936 100.797 0.908936C103.701 0.908936 106.055 3.26271 106.055 6.16624ZM132.342 11.4232C135.245 11.4232 137.599 9.06941 137.599 6.16588C137.599 3.26234 135.245 0.908569 132.342 0.908569C129.438 0.908569 127.084 3.26234 127.084 6.16588C127.084 9.06941 129.438 11.4232 132.342 11.4232ZM195.428 11.4237C198.332 11.4237 200.686 9.06996 200.686 6.16643C200.686 3.26289 198.332 0.909119 195.428 0.909119C192.525 0.909119 190.171 3.26289 190.171 6.16643C190.171 9.06996 192.525 11.4237 195.428 11.4237ZM232.23 6.16606C232.23 9.0696 229.876 11.4234 226.973 11.4234C224.069 11.4234 221.716 9.0696 221.716 6.16606C221.716 3.26253 224.069 0.908752 226.973 0.908752C229.876 0.908752 232.23 3.26253 232.23 6.16606ZM6.16576 42.9667C9.06929 42.9667 11.4231 40.6129 11.4231 37.7094C11.4231 34.8059 9.06929 32.4521 6.16576 32.4521C3.26222 32.4521 0.908447 34.8059 0.908447 37.7094C0.908447 40.6129 3.26222 42.9667 6.16576 42.9667ZM42.9675 37.709C42.9675 40.6126 40.6137 42.9663 37.7102 42.9663C34.8067 42.9663 32.4529 40.6126 32.4529 37.709C32.4529 34.8055 34.8067 32.4517 37.7102 32.4517C40.6137 32.4517 42.9675 34.8055 42.9675 37.709ZM69.2525 42.9672C72.156 42.9672 74.5098 40.6135 74.5098 37.7099C74.5098 34.8064 72.156 32.4526 69.2525 32.4526C66.349 32.4526 63.9952 34.8064 63.9952 37.7099C63.9952 40.6135 66.349 42.9672 69.2525 42.9672ZM106.054 37.7096C106.054 40.6131 103.7 42.9669 100.797 42.9669C97.8934 42.9669 95.5396 40.6131 95.5396 37.7096C95.5396 34.806 97.8934 32.4523 100.797 32.4523C103.7 32.4523 106.054 34.806 106.054 37.7096ZM132.341 42.9665C135.245 42.9665 137.599 40.6127 137.599 37.7092C137.599 34.8057 135.245 32.4519 132.341 32.4519C129.438 32.4519 127.084 34.8057 127.084 37.7092C127.084 40.6127 129.438 42.9665 132.341 42.9665ZM169.143 37.7088C169.143 40.6124 166.789 42.9661 163.886 42.9661C160.982 42.9661 158.629 40.6124 158.629 37.7088C158.629 34.8053 160.982 32.4515 163.886 32.4515C166.789 32.4515 169.143 34.8053 169.143 37.7088ZM195.428 42.9671C198.332 42.9671 200.685 40.6133 200.685 37.7098C200.685 34.8062 198.332 32.4524 195.428 32.4524C192.525 32.4524 190.171 34.8062 190.171 37.7098C190.171 40.6133 192.525 42.9671 195.428 42.9671ZM232.23 37.7094C232.23 40.613 229.876 42.9668 226.973 42.9668C224.069 42.9668 221.715 40.613 221.715 37.7094C221.715 34.8059 224.069 32.4521 226.973 32.4521C229.876 32.4521 232.23 34.8059 232.23 37.7094ZM6.16606 74.5113C9.0696 74.5113 11.4234 72.1575 11.4234 69.2539C11.4234 66.3504 9.0696 63.9966 6.16606 63.9966C3.26253 63.9966 0.908752 66.3504 0.908752 69.2539C0.908752 72.1575 3.26253 74.5113 6.16606 74.5113ZM42.9679 69.2536C42.9679 72.1571 40.6141 74.5109 37.7106 74.5109C34.807 74.5109 32.4532 72.1571 32.4532 69.2536C32.4532 66.35 34.807 63.9963 37.7106 63.9963C40.6141 63.9963 42.9679 66.35 42.9679 69.2536ZM69.2529 74.5118C72.1564 74.5118 74.5102 72.158 74.5102 69.2545C74.5102 66.351 72.1564 63.9972 69.2529 63.9972C66.3493 63.9972 63.9956 66.351 63.9956 69.2545C63.9956 72.158 66.3493 74.5118 69.2529 74.5118ZM106.055 69.2541C106.055 72.1577 103.701 74.5114 100.797 74.5114C97.8938 74.5114 95.54 72.1577 95.54 69.2541C95.54 66.3506 97.8938 63.9968 100.797 63.9968C103.701 63.9968 106.055 66.3506 106.055 69.2541ZM132.342 74.5111C135.245 74.5111 137.599 72.1573 137.599 69.2538C137.599 66.3502 135.245 63.9965 132.342 63.9965C129.438 63.9965 127.084 66.3502 127.084 69.2538C127.084 72.1573 129.438 74.5111 132.342 74.5111ZM169.144 69.2534C169.144 72.1569 166.79 74.5107 163.886 74.5107C160.983 74.5107 158.629 72.1569 158.629 69.2534C158.629 66.3499 160.983 63.9961 163.886 63.9961C166.79 63.9961 169.144 66.3499 169.144 69.2534ZM195.429 74.5116C198.332 74.5116 200.686 72.1578 200.686 69.2543C200.686 66.3508 198.332 63.997 195.429 63.997C192.525 63.997 190.171 66.3508 190.171 69.2543C190.171 72.1578 192.525 74.5116 195.429 74.5116ZM232.23 69.2539C232.23 72.1575 229.877 74.5113 226.973 74.5113C224.069 74.5113 221.716 72.1575 221.716 69.2539C221.716 66.3504 224.069 63.9966 226.973 63.9966C229.877 63.9966 232.23 66.3504 232.23 69.2539ZM6.16582 106.055C9.06935 106.055 11.4231 103.701 11.4231 100.797C11.4231 97.8937 9.06935 95.54 6.16582 95.54C3.26228 95.54 0.908508 97.8937 0.908508 100.797C0.908508 103.701 3.26228 106.055 6.16582 106.055ZM42.9676 100.797C42.9676 103.7 40.6138 106.054 37.7103 106.054C34.8068 106.054 32.453 103.7 32.453 100.797C32.453 97.8934 34.8068 95.5396 37.7103 95.5396C40.6138 95.5396 42.9676 97.8934 42.9676 100.797ZM69.2526 106.055C72.1561 106.055 74.5099 103.701 74.5099 100.798C74.5099 97.8943 72.1561 95.5405 69.2526 95.5405C66.349 95.5405 63.9952 97.8943 63.9952 100.798C63.9952 103.701 66.349 106.055 69.2526 106.055ZM106.054 100.798C106.054 103.701 103.701 106.055 100.797 106.055C97.8935 106.055 95.5397 103.701 95.5397 100.798C95.5397 97.894 97.8935 95.5402 100.797 95.5402C103.701 95.5402 106.054 97.894 106.054 100.798ZM132.342 106.054C135.245 106.054 137.599 103.701 137.599 100.797C137.599 97.8936 135.245 95.5398 132.342 95.5398C129.438 95.5398 127.084 97.8936 127.084 100.797C127.084 103.701 129.438 106.054 132.342 106.054ZM169.143 100.797C169.143 103.7 166.79 106.054 163.886 106.054C160.982 106.054 158.629 103.7 158.629 100.797C158.629 97.8933 160.982 95.5395 163.886 95.5395C166.79 95.5395 169.143 97.8933 169.143 100.797ZM195.428 106.055C198.332 106.055 200.686 103.701 200.686 100.798C200.686 97.8942 198.332 95.5404 195.428 95.5404C192.525 95.5404 190.171 97.8942 190.171 100.798C190.171 103.701 192.525 106.055 195.428 106.055ZM232.23 100.797C232.23 103.701 229.876 106.055 226.973 106.055C224.069 106.055 221.715 103.701 221.715 100.797C221.715 97.8938 224.069 95.54 226.973 95.54C229.876 95.54 232.23 97.8938 232.23 100.797ZM6.16618 137.599C9.06972 137.599 11.4235 135.245 11.4235 132.342C11.4235 129.438 9.06972 127.084 6.16618 127.084C3.26265 127.084 0.908875 129.438 0.908875 132.342C0.908875 135.245 3.26265 137.599 6.16618 137.599ZM42.9679 132.341C42.9679 135.245 40.6142 137.599 37.7106 137.599C34.8071 137.599 32.4533 135.245 32.4533 132.341C32.4533 129.438 34.8071 127.084 37.7106 127.084C40.6142 127.084 42.9679 129.438 42.9679 132.341ZM69.2529 137.6C72.1565 137.6 74.5102 135.246 74.5102 132.342C74.5102 129.439 72.1565 127.085 69.2529 127.085C66.3494 127.085 63.9956 129.439 63.9956 132.342C63.9956 135.246 66.3494 137.6 69.2529 137.6ZM106.055 132.342C106.055 135.245 103.701 137.599 100.797 137.599C97.8939 137.599 95.5401 135.245 95.5401 132.342C95.5401 129.438 97.8939 127.085 100.797 127.085C103.701 127.085 106.055 129.438 106.055 132.342ZM132.342 137.599C135.245 137.599 137.599 135.245 137.599 132.342C137.599 129.438 135.245 127.084 132.342 127.084C129.438 127.084 127.085 129.438 127.085 132.342C127.085 135.245 129.438 137.599 132.342 137.599ZM169.144 132.341C169.144 135.245 166.79 137.599 163.886 137.599C160.983 137.599 158.629 135.245 158.629 132.341C158.629 129.438 160.983 127.084 163.886 127.084C166.79 127.084 169.144 129.438 169.144 132.341ZM195.429 137.6C198.332 137.6 200.686 135.246 200.686 132.342C200.686 129.439 198.332 127.085 195.429 127.085C192.525 127.085 190.171 129.439 190.171 132.342C190.171 135.246 192.525 137.6 195.429 137.6ZM232.23 132.342C232.23 135.245 229.877 137.599 226.973 137.599C224.07 137.599 221.716 135.245 221.716 132.342C221.716 129.438 224.07 127.085 226.973 127.085C229.877 127.085 232.23 129.438 232.23 132.342ZM6.16588 169.142C9.06941 169.142 11.4232 166.789 11.4232 163.885C11.4232 160.982 9.06941 158.628 6.16588 158.628C3.26234 158.628 0.908569 160.982 0.908569 163.885C0.908569 166.789 3.26234 169.142 6.16588 169.142ZM42.9677 163.885C42.9677 166.788 40.6139 169.142 37.7104 169.142C34.8068 169.142 32.4531 166.788 32.4531 163.885C32.4531 160.981 34.8068 158.628 37.7104 158.628C40.6139 158.628 42.9677 160.981 42.9677 163.885ZM69.2526 169.143C72.1562 169.143 74.5099 166.789 74.5099 163.886C74.5099 160.982 72.1562 158.628 69.2526 158.628C66.3491 158.628 63.9953 160.982 63.9953 163.886C63.9953 166.789 66.3491 169.143 69.2526 169.143ZM106.054 163.885C106.054 166.789 103.701 169.143 100.797 169.143C97.8936 169.143 95.5398 166.789 95.5398 163.885C95.5398 160.982 97.8936 158.628 100.797 158.628C103.701 158.628 106.054 160.982 106.054 163.885ZM132.342 169.142C135.245 169.142 137.599 166.789 137.599 163.885C137.599 160.981 135.245 158.628 132.342 158.628C129.438 158.628 127.084 160.981 127.084 163.885C127.084 166.789 129.438 169.142 132.342 169.142ZM169.143 163.885C169.143 166.788 166.79 169.142 163.886 169.142C160.983 169.142 158.629 166.788 158.629 163.885C158.629 160.981 160.983 158.627 163.886 158.627C166.79 158.627 169.143 160.981 169.143 163.885ZM195.428 169.143C198.332 169.143 200.686 166.789 200.686 163.886C200.686 160.982 198.332 158.628 195.428 158.628C192.525 158.628 190.171 160.982 190.171 163.886C190.171 166.789 192.525 169.143 195.428 169.143ZM232.23 163.885C232.23 166.789 229.876 169.142 226.973 169.142C224.069 169.142 221.716 166.789 221.716 163.885C221.716 160.982 224.069 158.628 226.973 158.628C229.876 158.628 232.23 160.982 232.23 163.885ZM6.16624 200.687C9.06978 200.687 11.4236 198.333 11.4236 195.43C11.4236 192.526 9.06978 190.172 6.16624 190.172C3.26271 190.172 0.908936 192.526 0.908936 195.43C0.908936 198.333 3.26271 200.687 6.16624 200.687ZM42.968 195.429C42.968 198.333 40.6143 200.687 37.7107 200.687C34.8072 200.687 32.4534 198.333 32.4534 195.429C32.4534 192.526 34.8072 190.172 37.7107 190.172C40.6143 190.172 42.968 192.526 42.968 195.429ZM69.253 200.688C72.1565 200.688 74.5103 198.334 74.5103 195.43C74.5103 192.527 72.1565 190.173 69.253 190.173C66.3494 190.173 63.9957 192.527 63.9957 195.43C63.9957 198.334 66.3494 200.688 69.253 200.688ZM106.055 195.43C106.055 198.333 103.701 200.687 100.797 200.687C97.8939 200.687 95.5402 198.333 95.5402 195.43C95.5402 192.526 97.8939 190.173 100.797 190.173C103.701 190.173 106.055 192.526 106.055 195.43ZM132.342 200.687C135.246 200.687 137.599 198.333 137.599 195.43C137.599 192.526 135.246 190.172 132.342 190.172C129.438 190.172 127.085 192.526 127.085 195.43C127.085 198.333 129.438 200.687 132.342 200.687ZM169.144 195.429C169.144 198.333 166.79 200.686 163.886 200.686C160.983 200.686 158.629 198.333 158.629 195.429C158.629 192.526 160.983 190.172 163.886 190.172C166.79 190.172 169.144 192.526 169.144 195.429ZM195.429 200.687C198.332 200.687 200.686 198.334 200.686 195.43C200.686 192.527 198.332 190.173 195.429 190.173C192.525 190.173 190.171 192.527 190.171 195.43C190.171 198.334 192.525 200.687 195.429 200.687ZM232.23 195.43C232.23 198.333 229.877 200.687 226.973 200.687C224.07 200.687 221.716 198.333 221.716 195.43C221.716 192.526 224.07 190.172 226.973 190.172C229.877 190.172 232.23 192.526 232.23 195.43ZM6.16594 232.23C9.06947 232.23 11.4232 229.877 11.4232 226.973C11.4232 224.069 9.06947 221.716 6.16594 221.716C3.26241 221.716 0.90863 224.069 0.90863 226.973C0.90863 229.877 3.26241 232.23 6.16594 232.23ZM42.9677 226.973C42.9677 229.876 40.614 232.23 37.7104 232.23C34.8069 232.23 32.4531 229.876 32.4531 226.973C32.4531 224.069 34.8069 221.715 37.7104 221.715C40.614 221.715 42.9677 224.069 42.9677 226.973ZM69.2527 232.231C72.1562 232.231 74.51 229.877 74.51 226.974C74.51 224.07 72.1562 221.716 69.2527 221.716C66.3491 221.716 63.9954 224.07 63.9954 226.974C63.9954 229.877 66.3491 232.231 69.2527 232.231ZM106.054 226.973C106.054 229.877 103.701 232.23 100.797 232.23C97.8936 232.23 95.5399 229.877 95.5399 226.973C95.5399 224.07 97.8936 221.716 100.797 221.716C103.701 221.716 106.054 224.07 106.054 226.973ZM132.342 232.23C135.245 232.23 137.599 229.876 137.599 226.973C137.599 224.069 135.245 221.716 132.342 221.716C129.438 221.716 127.084 224.069 127.084 226.973C127.084 229.876 129.438 232.23 132.342 232.23ZM169.143 226.973C169.143 229.876 166.79 232.23 163.886 232.23C160.983 232.23 158.629 229.876 158.629 226.973C158.629 224.069 160.983 221.715 163.886 221.715C166.79 221.715 169.143 224.069 169.143 226.973ZM195.428 232.231C198.332 232.231 200.686 229.877 200.686 226.973C200.686 224.07 198.332 221.716 195.428 221.716C192.525 221.716 190.171 224.07 190.171 226.973C190.171 229.877 192.525 232.231 195.428 232.231ZM232.23 226.973C232.23 229.877 229.876 232.23 226.973 232.23C224.069 232.23 221.716 229.877 221.716 226.973C221.716 224.07 224.069 221.716 226.973 221.716C229.876 221.716 232.23 224.07 232.23 226.973Z" fill="url(#paint0_linear_12_1233)"/>
<defs>
<linearGradient id="paint0_linear_12_1233" x1="0.908447" y1="232.231" x2="232.231" y2="0.908783" gradientUnits="userSpaceOnUse">
<stop stop-color="#E5E5E5"/>
<stop offset="1" stop-color="#E5E5E5" stop-opacity="0"/>
</linearGradient>
</defs>
</svg>
