<svg width="176" height="176" viewBox="0 0 176 176" fill="none" xmlns="http://www.w3.org/2000/svg">
<path opacity="0.5" fill-rule="evenodd" clip-rule="evenodd" d="M128.001 4C128.001 6.20914 126.21 8 124.001 8C121.792 8 120.001 6.20914 120.001 4C120.001 1.79086 121.792 0 124.001 0C126.21 0 128.001 1.79086 128.001 4ZM32.0007 4.00012C32.0007 6.20926 30.2098 8.00012 28.0007 8.00012C25.7915 8.00012 24.0007 6.20926 24.0007 4.00012C24.0007 1.79098 25.7915 0.00012207 28.0007 0.00012207C30.2098 0.00012207 32.0007 1.79098 32.0007 4.00012ZM8.00021 4.00043C8.00021 6.20957 6.20935 8.00043 4.00021 8.00043C1.79107 8.00043 0.000213623 6.20957 0.000213623 4.00043C0.000213623 1.79129 1.79107 0.000427246 4.00021 0.000427246C6.20935 0.000427246 8.00021 1.79129 8.00021 4.00043ZM51.9995 8.00085C54.2086 8.00085 55.9995 6.20999 55.9995 4.00085C55.9995 1.79172 54.2086 0.000854492 51.9995 0.000854492C49.7903 0.000854492 47.9995 1.79172 47.9995 4.00085C47.9995 6.20999 49.7903 8.00085 51.9995 8.00085ZM79.9999 4.00055C79.9999 6.20969 78.2091 8.00055 75.9999 8.00055C73.7908 8.00055 71.9999 6.20969 71.9999 4.00055C71.9999 1.79141 73.7908 0.000549316 75.9999 0.000549316C78.2091 0.000549316 79.9999 1.79141 79.9999 4.00055ZM100 8.00031C102.21 8.00031 104 6.20944 104 4.00031C104 1.79117 102.21 0.000305176 100 0.000305176C97.7913 0.000305176 96.0004 1.79117 96.0004 4.00031C96.0004 6.20944 97.7913 8.00031 100 8.00031ZM148 8.00073C150.209 8.00073 152 6.20987 152 4.00073C152 1.79159 150.209 0.000732422 148 0.000732422C145.791 0.000732422 144 1.79159 144 4.00073C144 6.20987 145.791 8.00073 148 8.00073ZM176 4.00049C176 6.20963 174.209 8.00049 172 8.00049C169.791 8.00049 168 6.20963 168 4.00049C168 1.79135 169.791 0.000488281 172 0.000488281C174.209 0.000488281 176 1.79135 176 4.00049ZM4 32.0001C6.20914 32.0001 8 30.2092 8 28.0001C8 25.7909 6.20914 24.0001 4 24.0001C1.79086 24.0001 0 25.7909 0 28.0001C0 30.2092 1.79086 32.0001 4 32.0001ZM32.0005 27.9998C32.0005 30.2089 30.2096 31.9998 28.0005 31.9998C25.7913 31.9998 24.0005 30.2089 24.0005 27.9998C24.0005 25.7906 25.7913 23.9998 28.0005 23.9998C30.2096 23.9998 32.0005 25.7906 32.0005 27.9998ZM51.9993 32.0005C54.2084 32.0005 55.9993 30.2096 55.9993 28.0005C55.9993 25.7913 54.2084 24.0005 51.9993 24.0005C49.7901 24.0005 47.9993 25.7913 47.9993 28.0005C47.9993 30.2096 49.7901 32.0005 51.9993 32.0005ZM79.9997 28.0002C79.9997 30.2093 78.2089 32.0002 75.9997 32.0002C73.7906 32.0002 71.9997 30.2093 71.9997 28.0002C71.9997 25.791 73.7906 24.0002 75.9997 24.0002C78.2089 24.0002 79.9997 25.791 79.9997 28.0002ZM100 31.9999C102.209 31.9999 104 30.2091 104 27.9999C104 25.7908 102.209 23.9999 100 23.9999C97.791 23.9999 96.0002 25.7908 96.0002 27.9999C96.0002 30.2091 97.791 31.9999 100 31.9999ZM128.001 27.9996C128.001 30.2088 126.21 31.9996 124.001 31.9996C121.792 31.9996 120.001 30.2088 120.001 27.9996C120.001 25.7905 121.792 23.9996 124.001 23.9996C126.21 23.9996 128.001 25.7905 128.001 27.9996ZM147.999 32.0004C150.209 32.0004 151.999 30.2095 151.999 28.0004C151.999 25.7912 150.209 24.0004 147.999 24.0004C145.79 24.0004 143.999 25.7912 143.999 28.0004C143.999 30.2095 145.79 32.0004 147.999 32.0004ZM176 28.0001C176 30.2092 174.209 32.0001 172 32.0001C169.791 32.0001 168 30.2092 168 28.0001C168 25.7909 169.791 24.0001 172 24.0001C174.209 24.0001 176 25.7909 176 28.0001ZM4.00027 56.0005C6.20941 56.0005 8.00027 54.2097 8.00027 52.0005C8.00027 49.7914 6.20941 48.0005 4.00027 48.0005C1.79114 48.0005 0.000274658 49.7914 0.000274658 52.0005C0.000274658 54.2097 1.79114 56.0005 4.00027 56.0005ZM32.0007 52.0002C32.0007 54.2094 30.2099 56.0002 28.0007 56.0002C25.7916 56.0002 24.0007 54.2094 24.0007 52.0002C24.0007 49.7911 25.7916 48.0002 28.0007 48.0002C30.2099 48.0002 32.0007 49.7911 32.0007 52.0002ZM51.9995 56.001C54.2086 56.001 55.9995 54.2101 55.9995 52.001C55.9995 49.7918 54.2086 48.001 51.9995 48.001C49.7904 48.001 47.9995 49.7918 47.9995 52.001C47.9995 54.2101 49.7904 56.001 51.9995 56.001ZM80 52.0007C80 54.2098 78.2091 56.0007 76 56.0007C73.7909 56.0007 72 54.2098 72 52.0007C72 49.7915 73.7909 48.0007 76 48.0007C78.2091 48.0007 80 49.7915 80 52.0007ZM100 56.0004C102.21 56.0004 104 54.2096 104 52.0004C104 49.7913 102.21 48.0004 100 48.0004C97.7913 48.0004 96.0005 49.7913 96.0005 52.0004C96.0005 54.2096 97.7913 56.0004 100 56.0004ZM128.001 52.0001C128.001 54.2093 126.21 56.0001 124.001 56.0001C121.792 56.0001 120.001 54.2093 120.001 52.0001C120.001 49.791 121.792 48.0001 124.001 48.0001C126.21 48.0001 128.001 49.791 128.001 52.0001ZM148 56.0009C150.209 56.0009 152 54.21 152 52.0009C152 49.7917 150.209 48.0009 148 48.0009C145.791 48.0009 144 49.7917 144 52.0009C144 54.21 145.791 56.0009 148 56.0009ZM176 52.0005C176 54.2097 174.209 56.0005 172 56.0005C169.791 56.0005 168 54.2097 168 52.0005C168 49.7914 169.791 48.0005 172 48.0005C174.209 48.0005 176 49.7914 176 52.0005ZM4.00006 80.0001C6.2092 80.0001 8.00006 78.2093 8.00006 76.0001C8.00006 73.791 6.2092 72.0001 4.00006 72.0001C1.79092 72.0001 6.10352e-05 73.791 6.10352e-05 76.0001C6.10352e-05 78.2093 1.79092 80.0001 4.00006 80.0001ZM32.0005 75.9999C32.0005 78.209 30.2097 79.9999 28.0005 79.9999C25.7914 79.9999 24.0005 78.209 24.0005 75.9999C24.0005 73.7907 25.7914 71.9999 28.0005 71.9999C30.2097 71.9999 32.0005 73.7907 32.0005 75.9999ZM51.9993 80.0005C54.2084 80.0005 55.9993 78.2097 55.9993 76.0005C55.9993 73.7914 54.2084 72.0005 51.9993 72.0005C49.7902 72.0005 47.9993 73.7914 47.9993 76.0005C47.9993 78.2097 49.7902 80.0005 51.9993 80.0005ZM79.9998 76.0003C79.9998 78.2094 78.2089 80.0003 75.9998 80.0003C73.7906 80.0003 71.9998 78.2094 71.9998 76.0003C71.9998 73.7912 73.7906 72.0003 75.9998 72.0003C78.2089 72.0003 79.9998 73.7912 79.9998 76.0003ZM100 80C102.209 80 104 78.2091 104 76C104 73.7909 102.209 72 100 72C97.7911 72 96.0002 73.7909 96.0002 76C96.0002 78.2091 97.7911 80 100 80ZM128.001 75.9998C128.001 78.2089 126.21 79.9998 124.001 79.9998C121.792 79.9998 120.001 78.2089 120.001 75.9998C120.001 73.7906 121.792 71.9998 124.001 71.9998C126.21 71.9998 128.001 73.7906 128.001 75.9998ZM147.999 80.0004C150.209 80.0004 151.999 78.2096 151.999 76.0004C151.999 73.7913 150.209 72.0004 147.999 72.0004C145.79 72.0004 143.999 73.7913 143.999 76.0004C143.999 78.2096 145.79 80.0004 147.999 80.0004ZM176 76.0002C176 78.2093 174.209 80.0002 172 80.0002C169.791 80.0002 168 78.2093 168 76.0002C168 73.791 169.791 72.0002 172 72.0002C174.209 72.0002 176 73.791 176 76.0002ZM4.00034 104.001C6.20947 104.001 8.00034 102.21 8.00034 100.001C8.00034 97.7915 6.20947 96.0006 4.00034 96.0006C1.7912 96.0006 0.000335693 97.7915 0.000335693 100.001C0.000335693 102.21 1.7912 104.001 4.00034 104.001ZM32.0008 100C32.0008 102.21 30.2099 104 28.0008 104C25.7917 104 24.0008 102.21 24.0008 100C24.0008 97.7912 25.7917 96.0004 28.0008 96.0004C30.2099 96.0004 32.0008 97.7912 32.0008 100ZM51.9996 104.001C54.2087 104.001 55.9996 102.21 55.9996 100.001C55.9996 97.7919 54.2087 96.001 51.9996 96.001C49.7904 96.001 47.9996 97.7919 47.9996 100.001C47.9996 102.21 49.7904 104.001 51.9996 104.001ZM80.0001 100.001C80.0001 102.21 78.2092 104.001 76.0001 104.001C73.7909 104.001 72.0001 102.21 72.0001 100.001C72.0001 97.7917 73.7909 96.0008 76.0001 96.0008C78.2092 96.0008 80.0001 97.7917 80.0001 100.001ZM100.001 104C102.21 104 104.001 102.21 104.001 100C104.001 97.7914 102.21 96.0005 100.001 96.0005C97.7914 96.0005 96.0005 97.7914 96.0005 100C96.0005 102.21 97.7914 104 100.001 104ZM128.001 100C128.001 102.209 126.21 104 124.001 104C121.792 104 120.001 102.209 120.001 100C120.001 97.7911 121.792 96.0002 124.001 96.0002C126.21 96.0002 128.001 97.7911 128.001 100ZM148 104.001C150.209 104.001 152 102.21 152 100.001C152 97.7918 150.209 96.0009 148 96.0009C145.791 96.0009 144 97.7918 144 100.001C144 102.21 145.791 104.001 148 104.001ZM176 100.001C176 102.21 174.209 104.001 172 104.001C169.791 104.001 168 102.21 168 100.001C168 97.7915 169.791 96.0007 172 96.0007C174.209 96.0007 176 97.7915 176 100.001ZM4.00012 128C6.20926 128 8.00012 126.209 8.00012 124C8.00012 121.791 6.20926 120 4.00012 120C1.79098 120 0.00012207 121.791 0.00012207 124C0.00012207 126.209 1.79098 128 4.00012 128ZM32.0006 124C32.0006 126.209 30.2097 128 28.0006 128C25.7914 128 24.0006 126.209 24.0006 124C24.0006 121.791 25.7914 120 28.0006 120C30.2097 120 32.0006 121.791 32.0006 124ZM51.9994 128.001C54.2085 128.001 55.9994 126.21 55.9994 124.001C55.9994 121.792 54.2085 120.001 51.9994 120.001C49.7902 120.001 47.9994 121.792 47.9994 124.001C47.9994 126.21 49.7902 128.001 51.9994 128.001ZM79.9998 124C79.9998 126.21 78.209 128 75.9998 128C73.7907 128 71.9998 126.21 71.9998 124C71.9998 121.791 73.7907 120 75.9998 120C78.209 120 79.9998 121.791 79.9998 124ZM100 128C102.209 128 104 126.209 104 124C104 121.791 102.209 120 100 120C97.7912 120 96.0003 121.791 96.0003 124C96.0003 126.209 97.7912 128 100 128ZM128.001 124C128.001 126.209 126.21 128 124.001 128C121.792 128 120.001 126.209 120.001 124C120.001 121.791 121.792 120 124.001 120C126.21 120 128.001 121.791 128.001 124ZM148 128.001C150.209 128.001 152 126.21 152 124.001C152 121.791 150.209 120.001 148 120.001C145.79 120.001 144 121.791 144 124.001C144 126.21 145.79 128.001 148 128.001ZM176 124C176 126.209 174.209 128 172 128C169.791 128 168 126.209 168 124C168 121.791 169.791 120 172 120C174.209 120 176 121.791 176 124ZM4.0004 152.001C6.20954 152.001 8.0004 150.21 8.0004 148.001C8.0004 145.792 6.20954 144.001 4.0004 144.001C1.79126 144.001 0.000396729 145.792 0.000396729 148.001C0.000396729 150.21 1.79126 152.001 4.0004 152.001ZM32.0009 148C32.0009 150.21 30.21 152 28.0009 152C25.7917 152 24.0009 150.21 24.0009 148C24.0009 145.791 25.7917 144 28.0009 144C30.21 144 32.0009 145.791 32.0009 148ZM51.9996 152.001C54.2088 152.001 55.9996 150.21 55.9996 148.001C55.9996 145.792 54.2088 144.001 51.9996 144.001C49.7905 144.001 47.9996 145.792 47.9996 148.001C47.9996 150.21 49.7905 152.001 51.9996 152.001ZM80.0001 148.001C80.0001 150.21 78.2093 152.001 76.0001 152.001C73.791 152.001 72.0001 150.21 72.0001 148.001C72.0001 145.792 73.791 144.001 76.0001 144.001C78.2093 144.001 80.0001 145.792 80.0001 148.001ZM100.001 152.001C102.21 152.001 104.001 150.21 104.001 148.001C104.001 145.791 102.21 144.001 100.001 144.001C97.7914 144.001 96.0006 145.791 96.0006 148.001C96.0006 150.21 97.7914 152.001 100.001 152.001ZM128.001 148C128.001 150.209 126.21 152 124.001 152C121.792 152 120.001 150.209 120.001 148C120.001 145.791 121.792 144 124.001 144C126.21 144 128.001 145.791 128.001 148ZM148 152.001C150.209 152.001 152 150.21 152 148.001C152 145.792 150.209 144.001 148 144.001C145.791 144.001 144 145.792 144 148.001C144 150.21 145.791 152.001 148 152.001ZM176 148.001C176 150.21 174.209 152.001 172 152.001C169.791 152.001 168 150.21 168 148.001C168 145.792 169.791 144.001 172 144.001C174.209 144.001 176 145.792 176 148.001ZM4.00018 176C6.20932 176 8.00018 174.21 8.00018 172C8.00018 169.791 6.20932 168 4.00018 168C1.79104 168 0.000183105 169.791 0.000183105 172C0.000183105 174.21 1.79104 176 4.00018 176ZM32.0006 172C32.0006 174.209 30.2098 176 28.0006 176C25.7915 176 24.0006 174.209 24.0006 172C24.0006 169.791 25.7915 168 28.0006 168C30.2098 168 32.0006 169.791 32.0006 172ZM51.9994 176.001C54.2086 176.001 55.9994 174.21 55.9994 172.001C55.9994 169.792 54.2086 168.001 51.9994 168.001C49.7903 168.001 47.9994 169.792 47.9994 172.001C47.9994 174.21 49.7903 176.001 51.9994 176.001ZM79.9999 172C79.9999 174.21 78.209 176 75.9999 176C73.7908 176 71.9999 174.21 71.9999 172C71.9999 169.791 73.7908 168 75.9999 168C78.209 168 79.9999 169.791 79.9999 172ZM100 176C102.21 176 104 174.209 104 172C104 169.791 102.21 168 100 168C97.7912 168 96.0004 169.791 96.0004 172C96.0004 174.209 97.7912 176 100 176ZM128.001 172C128.001 174.209 126.21 176 124.001 176C121.792 176 120.001 174.209 120.001 172C120.001 169.791 121.792 168 124.001 168C126.21 168 128.001 169.791 128.001 172ZM148 176.001C150.209 176.001 152 174.21 152 172.001C152 169.792 150.209 168.001 148 168.001C145.79 168.001 144 169.792 144 172.001C144 174.21 145.79 176.001 148 176.001ZM176 172C176 174.21 174.209 176 172 176C169.791 176 168 174.21 168 172C168 169.791 169.791 168 172 168C174.209 168 176 169.791 176 172Z" fill="url(#paint0_linear_1_371)"/>
<defs>
<linearGradient id="paint0_linear_1_371" x1="-2.86848e-07" y1="176.001" x2="176.001" y2="0.000442219" gradientUnits="userSpaceOnUse">
<stop stop-color="#E5E5E5"/>
<stop offset="1" stop-color="#E5E5E5" stop-opacity="0"/>
</linearGradient>
</defs>
</svg>
